<?xml version="1.0" encoding="utf-8"?>
<!-- Generator: Adobe Illustrator 25.2.0, SVG Export Plug-In . SVG Version: 6.00 Build 0)  -->
<svg version="1.1" xmlns="http://www.w3.org/2000/svg" xmlns:xlink="http://www.w3.org/1999/xlink" x="0px" y="0px"
	 viewBox="0 0 4320 4320" style="enable-background:new 0 0 4320 4320;" xml:space="preserve">
<style type="text/css">
	.st0{fill:#0069FF;}
	.st1{fill:#FFFFFF;}
</style>
<g id="Layer_1">
</g>
<g id="Layer_2">
	<g>
		<g>
			<path class="st0" d="M1059,1637c0.5-1.3,0.7-2.9,1.6-4c134.4-169,654.8-437.2,883.4-471c129.4-19.1,209.4,28.8,254.6,74.4
				c34.6,34.8,53.1,82.5,52.1,131.6c-1.8,85.1-20.7,225-174.7,240c-109.7,10.7-141.5,41.4-146.7,68.5c-4.7,24,11.3,47.1,35.2,52.3
				c67.5,14.6,268.9,38.5,351.5-169.7c100-252-9-404-9-404c431,6,648,211,648,211s-215,58-240,254s70.8,296.3,111,325
				c42,30,156,10,72-90s-80-197-80-197s34-232,231-201s395,333,415,588s-172,374-172,374c-60,54-326,81-415,105s-159,151-159,151
				l457-9l-64,45l-1045,764l78-115l279-410c0,0-78.9-3.2-203,6c-121,9-115-13-115-13s106-170,263.6-396.6
				c164.1-235.9,146.3-534.3,146.3-534.3s-6.9-109.1-87-93.6s-56,94.1-56,94.1"/>
			<path class="st0" d="M2371.2,1969.6c-0.9,3.3-1.5,6.8-1.8,10.6c-0.1,1.1-0.2,2.2-0.2,3.3c-1.3,25.2,9,59.7,35.9,107.6
				c54,96-4,191-4,191c-169,277-230,264-230,264l-481.7,0.4c0,0,115-135.8,89.7-371.4c-25-233-241-289-241-289s-153-47-184,4
				c-15.5,25.6-9,43.6,1.5,55.2c9.8,10.9,24.3,16.3,39,15.5c74.5-4.5,139.4,27.7,185.4,60.6c46.9,33.6,80.4,82.6,94.9,138.4
				C1776.9,2552,1424,2538,1424,2538s-585-42-611.5-306.5C786,1967,1063,1630,1063,1630"/>
		</g>
		<path class="st1" d="M1956,1854l279,172c72,2,134.6-47.8,134.6-47.8l2.4-28.2L1956,1854z"/>
		<polyline class="st0" points="2186,1867 1853,1790 2076.4,2026.1 2327,2047 2369.4,1980.1 2377,1905 		"/>
	</g>
</g>
</svg>
